<svg width="1000" height="177" viewBox="0 0 1000 177" fill="none" xmlns="http://www.w3.org/2000/svg">
<path d="M170.575 6.26799V165.408C170.575 168.903 167.734 171.676 164.282 171.676H131.704C128.195 171.676 125.411 168.847 125.411 165.408V130.851C125.411 127.412 122.571 124.583 119.118 124.583L51.6234 124.361C48.115 124.361 45.2749 127.19 45.2749 130.629V165.408C45.2749 168.903 42.4348 171.676 38.9821 171.676H6.29282C2.78444 171.676 0 168.847 0 165.408V6.26799C0 2.82891 2.84012 0 6.29282 0H38.9264C42.4348 0 45.2192 2.82891 45.2192 6.26799V72.9416C45.2192 76.4361 48.0594 79.2096 51.5121 79.2096H119.007C122.515 79.2096 125.3 76.3807 125.3 72.9416V6.26799C125.3 2.77344 128.14 0 131.592 0H164.17C167.679 0 170.463 2.82891 170.463 6.26799H170.575Z" fill="#212121"/>
<path d="M561.288 6.26799V165.408C561.288 168.903 558.448 171.676 554.996 171.676H529.936C527.04 171.676 524.534 169.735 523.81 166.961L523.42 165.575C522.251 161.193 516.904 159.362 513.396 162.302C502.258 171.51 487.557 176.28 469.458 176.28C436.49 176.28 410.316 155.368 410.316 107.887C410.316 55.8017 439.497 30.5634 479.537 30.5634C490.007 30.5634 499.53 32.3384 507.771 35.2228C511.837 36.6649 516.013 33.5032 516.013 29.2321V6.26799C516.013 2.77345 518.854 0 522.306 0H554.884C558.393 0 561.177 2.82891 561.177 6.26799H561.288ZM516.069 97.8472V80.319C516.069 77.601 514.343 75.2713 511.837 74.3283C505.377 71.9986 497.803 70.9447 489.394 70.9447C469.513 70.9447 455.313 83.4252 455.313 106.5C455.313 125.748 465.949 136.065 482.266 136.065C501.59 136.065 516.069 122.753 516.069 97.7917V97.8472Z" fill="#212121"/>
<path d="M733.916 96.2385C733.916 153.205 697.106 175.504 646.708 175.504C627.272 175.504 604.44 172.841 587.956 169.347C585.005 168.736 582.944 166.185 582.944 163.189V6.26799C582.944 2.77344 585.784 0 589.237 0H621.815C625.323 0 628.108 2.82891 628.108 6.26799V34.1688C628.108 39.1056 633.621 42.2118 637.742 39.4939C647.766 32.9485 659.906 29.5095 673.884 29.5095C706.573 29.5095 733.805 49.0345 733.805 96.294L733.916 96.2385ZM688.697 99.5112C688.697 80.2635 677.504 69.6689 660.63 69.6689C643.756 69.6689 627.941 82.4268 627.941 106.556V129.908C627.941 133.236 630.558 135.954 633.844 136.176C638.41 136.509 642.698 136.62 646.708 136.398C671.489 136.398 688.641 124.75 688.641 99.5112H688.697Z" fill="#212121"/>
<path d="M893.405 145.552V166.575C893.405 169.404 891.512 172.011 888.727 172.677C881.098 174.563 873.524 175.506 865.338 175.506C854.2 175.506 846.181 172.011 840.779 166.686C838.607 164.523 835.322 164.079 832.704 165.688C823.349 171.456 809.204 175.783 790.938 175.783C763.428 175.783 743.268 161.416 743.268 132.073C743.268 100.567 763.428 86.7553 795.337 86.7553C805.695 86.7553 814.271 88.0311 821.065 90.2499C826.3 91.9139 830.922 86.8663 828.917 81.8186C824.295 70.3365 814.16 67.785 800.238 67.785C785.48 67.785 773.674 70.7248 763.539 74.6631C759.418 76.2717 755.019 73.2209 755.019 68.7834V43.8224C755.019 41.1599 756.634 38.8302 759.14 37.8872C770.89 33.6161 788.822 29.7333 813.046 29.7333C853.365 29.7333 876.81 45.4865 876.81 96.5179V130.742C876.81 136.733 879.538 139.451 884.996 139.451C885.609 139.451 886.165 139.451 886.778 139.395C890.398 139.118 893.461 142.002 893.461 145.608L893.405 145.552ZM831.535 129.355C831.535 119.316 821.455 114.157 807.533 114.157C793.611 114.157 784.923 119.316 784.923 129.078C784.923 138.841 793.666 144.277 807.533 144.277C821.399 144.277 831.535 139.395 831.535 129.355Z" fill="#212121"/>
<path d="M999.944 36.2736V72.994C999.944 76.3776 997.216 79.1511 993.819 79.262C961.408 80.094 951.774 92.1862 951.774 114.429V165.405C951.774 168.9 948.933 171.673 945.481 171.673H912.903C909.394 171.673 906.61 168.844 906.61 165.405V40.3783C906.61 36.8838 909.45 34.1103 912.903 34.1103H945.481C948.989 34.1103 951.774 36.9392 951.774 40.3783C951.774 46.0361 958.623 48.7541 962.633 44.7049C971.153 36.0517 982.013 31.0595 993.15 29.9501C996.826 29.5619 1000 32.5572 1000 36.2736H999.944Z" fill="#212121"/>
<path d="M390.538 171.676H357.96C354.452 171.676 351.668 168.847 351.668 165.408V6.26799C351.668 2.77344 354.508 0 357.96 0H390.538C394.047 0 396.831 2.82891 396.831 6.26799V165.408C396.831 168.903 393.991 171.676 390.538 171.676Z" fill="#212121"/>
<path d="M184.554 103.56C184.554 54.6919 220.251 29.4536 261.126 29.4536C302.002 29.4536 337.698 54.6919 337.698 103.56C337.698 152.428 302.558 176.002 261.126 176.002C219.694 176.002 184.554 152.373 184.554 103.56ZM292.423 102.728C292.423 81.0397 278 69.3357 261.07 69.3357C244.141 69.3357 229.439 80.9842 229.439 102.728C229.439 124.472 243.863 135.843 261.07 135.843C278.278 135.843 292.423 124.694 292.423 102.728Z" fill="#212121"/>
</svg>
