<svg width="22" height="16" viewBox="0 0 22 16" fill="none" xmlns="http://www.w3.org/2000/svg">
<g clip-path="url(#clip0_188_2017)">
<path d="M0.333374 0H21.6667V16H0.333374V0Z" fill="#005293"/>
<path d="M6.20004 0V6.4H0.333374V9.6H6.20004V16H9.40004V9.6H21.6667V6.4H9.40004V0H6.20004Z" fill="#FECB00"/>
<g clip-path="url(#clip1_188_2017)">
<path d="M0.333374 0H21.6634V16H0.333374V0Z" fill="#012169"/>
<path d="M2.83298 0L10.965 6.03333L19.0638 0H21.6634V2.06667L13.6646 8.03333L21.6634 13.9667V16H18.9971L10.9984 10.0333L3.03295 16H0.333374V14L8.2988 8.06667L0.333374 2.13333V0H2.83298Z" fill="white"/>
<path d="M14.4645 9.36667L21.6634 14.6667V16L12.6315 9.36667H14.4645ZM8.33212 10.0333L8.53209 11.2L2.13309 16H0.333374L8.33212 10.0333ZM21.6634 0V0.1L13.3647 6.36667L13.4313 4.9L19.997 0H21.6634ZM0.333374 0L8.2988 5.86667H6.29911L0.333374 1.4V0Z" fill="#C8102E"/>
<path d="M8.36545 0V16H13.698V0H8.36545ZM0.333374 5.33333V10.6667H21.6634V5.33333H0.333374Z" fill="white"/>
<path d="M0.333374 6.43333V9.63333H21.6634V6.43333H0.333374ZM9.43195 0V16H12.6315V0H9.43195Z" fill="#C8102E"/>
</g>
</g>
<defs>
<clipPath id="clip0_188_2017">
<rect x="0.333374" width="21.3333" height="16" rx="1" fill="white"/>
</clipPath>
<clipPath id="clip1_188_2017">
<rect x="0.333374" width="21.33" height="16" rx="1" fill="white"/>
</clipPath>
</defs>
</svg>
