<?xml version="1.0" encoding="utf-8"?>
<!-- Generator: Adobe Illustrator 22.1.0, SVG Export Plug-In . SVG Version: 6.00 Build 0)  -->
<svg version="1.1" id="Capa_1" xmlns="http://www.w3.org/2000/svg" xmlns:xlink="http://www.w3.org/1999/xlink" x="0px" y="0px"
	 viewBox="0 0 24 24" style="enable-background:new 0 0 24 24;" xml:space="preserve">
<style type="text/css">
	.st0{fill:#212121;}
</style>
<g>
	<path class="st0" d="M17,21c-0.3,0-0.6-0.1-0.8-0.4C14.4,18.3,12,17,9.5,17s-4.9,1.3-6.7,3.6c-0.3,0.4-1,0.5-1.4,0.2
		c-0.4-0.3-0.5-1-0.2-1.4C3.4,16.6,6.4,15,9.5,15s6.1,1.6,8.3,4.4c0.3,0.4,0.3,1.1-0.2,1.4C17.4,20.9,17.2,21,17,21z M22,21
		c-0.3,0-0.6-0.1-0.8-0.4c-1-1.3-2.3-2.3-3.6-2.9c-0.5-0.2-0.7-0.8-0.5-1.3c0.2-0.5,0.8-0.7,1.3-0.5c1.6,0.7,3.1,2,4.4,3.5
		c0.3,0.4,0.3,1.1-0.2,1.4C22.4,20.9,22.2,21,22,21z M9.5,13C6.5,13,4,10.5,4,7.5S6.5,2,9.5,2S15,4.5,15,7.5S12.5,13,9.5,13z M9.5,4
		C7.6,4,6,5.6,6,7.5S7.6,11,9.5,11S13,9.4,13,7.5S11.4,4,9.5,4z M16,12.5c-0.4,0-0.7-0.2-0.9-0.6c-0.2-0.5,0-1.1,0.5-1.3
		c1.2-0.6,1.9-1.8,1.9-3.1S16.8,5,15.6,4.4c-0.5-0.2-0.7-0.8-0.5-1.3c0.2-0.5,0.8-0.7,1.3-0.5c1.9,0.9,3.1,2.8,3.1,4.9
		s-1.2,4-3.1,4.9C16.3,12.5,16.2,12.5,16,12.5z"/>
</g>
</svg>
