<svg width="200" height="200" viewBox="0 0 200 200" fill="none" xmlns="http://www.w3.org/2000/svg">
<path d="M177.681 27.684V171.996C177.681 175.165 175.106 177.68 171.975 177.68H142.432C139.251 177.68 136.726 175.115 136.726 171.996V140.659C136.726 137.54 134.15 134.975 131.019 134.975L69.8134 134.774C66.6319 134.774 64.0564 137.339 64.0564 140.458V171.996C64.0564 175.165 61.4809 177.68 58.3499 177.68H28.7065C25.525 177.68 23 175.115 23 171.996V27.684C23 24.5653 25.5755 22 28.7065 22H58.2994C61.4809 22 64.0059 24.5653 64.0059 27.684V88.1451C64.0059 91.3141 66.5814 93.8291 69.7124 93.8291H130.918C134.1 93.8291 136.625 91.2638 136.625 88.1451V27.684C136.625 24.515 139.2 22 142.331 22H171.874C175.055 22 177.58 24.5653 177.58 27.684H177.681Z" fill="black"/>
</svg>
